M48
; DRILL file {KiCad 9.0.5} date 2025-11-06T15:21:25-0800
; FORMAT={-:-/ absolute / metric / decimal}
; #@! TF.CreationDate,2025-11-06T15:21:25-08:00
; #@! TF.GenerationSoftware,Kicad,Pcbnew,9.0.5
; #@! TF.FileFunction,Plated,1,2,PTH
FMAT,2
METRIC
; #@! TA.AperFunction,Plated,PTH,ViaDrill
T1C0.300
; #@! TA.AperFunction,Plated,PTH,ComponentDrill
T2C0.330
; #@! TA.AperFunction,Plated,PTH,ComponentDrill
T3C0.762
; #@! TA.AperFunction,Plated,PTH,ComponentDrill
T4C1.100
%
G90
G05
T1
X49.45Y-62.09
X49.675Y-63.85
X49.93Y-50.0
X50.08Y-51.58
X74.31Y-64.38
X77.5Y-64.38
X79.7Y-69.38
X79.73Y-74.867
X83.0Y-57.0
X83.0Y-58.5
X83.0Y-60.0
X85.0Y-57.0
X85.0Y-58.5
X85.0Y-60.0
X85.05Y-79.806
X85.1Y-81.92
X85.2Y-77.35
X86.48Y-71.62
X86.98Y-79.62
X87.0Y-57.0
X87.0Y-58.5
X87.0Y-60.0
X87.944Y-81.834
X88.5Y-57.0
X88.5Y-60.0
X88.665Y-58.675
X90.36Y-74.76
X90.53Y-68.983
X91.5Y-53.5
X91.5Y-55.0
X91.5Y-56.5
X91.5Y-58.5
X91.5Y-60.0
X93.0Y-53.5
X93.0Y-55.0
X93.0Y-56.5
X93.0Y-58.5
X93.0Y-60.0
X93.86Y-81.84
X94.5Y-53.5
X94.5Y-55.0
X94.5Y-56.5
X94.5Y-58.5
X94.5Y-60.0
X94.69Y-79.726
X96.0Y-53.5
X96.0Y-55.0
X96.0Y-56.5
X96.0Y-58.5
X96.0Y-60.0
X96.35Y-81.834
X96.36Y-77.6
X97.34Y-79.74
X97.5Y-53.5
X97.5Y-55.0
X97.5Y-56.5
X97.5Y-58.5
X97.5Y-60.0
X97.69Y-71.75
X99.0Y-53.5
X99.0Y-55.0
X99.0Y-56.5
X99.0Y-58.5
X99.0Y-60.0
X100.5Y-53.5
X100.5Y-55.0
X100.5Y-56.5
X100.5Y-58.5
X100.5Y-60.0
X101.31Y-47.17
X101.39Y-45.778
X101.85Y-84.182
X102.0Y-53.5
X102.0Y-55.0
X102.0Y-56.5
X102.0Y-58.5
X102.0Y-60.0
X103.5Y-53.5
X103.5Y-55.0
X103.5Y-56.5
X103.5Y-58.5
X103.5Y-60.0
X110.83Y-43.92
T2
X83.275Y-73.845
X83.275Y-75.145
X84.575Y-73.845
X84.575Y-75.145
X85.875Y-73.845
X85.875Y-75.145
X94.415Y-73.895
X94.415Y-75.195
X95.715Y-73.895
X95.715Y-75.195
X97.015Y-73.895
X97.015Y-75.195
T3
X53.08Y-40.698
X53.08Y-43.238
X53.08Y-45.778
X53.08Y-48.318
X53.08Y-50.858
X53.08Y-53.398
X53.08Y-55.938
X53.08Y-58.478
X53.08Y-61.018
X53.08Y-63.558
X53.08Y-66.098
X53.08Y-68.638
X53.08Y-71.178
X53.08Y-73.718
X53.08Y-76.258
X53.08Y-78.798
X53.08Y-81.338
X53.08Y-83.878
X53.08Y-86.418
X75.94Y-40.698
X75.94Y-43.238
X75.94Y-45.778
X75.94Y-48.318
X75.94Y-50.858
X75.94Y-53.398
X75.94Y-55.938
X75.94Y-58.478
X75.94Y-61.018
X75.94Y-63.558
X75.94Y-66.098
X75.94Y-68.638
X75.94Y-71.178
X75.94Y-73.718
X75.94Y-76.258
X75.94Y-78.798
X75.94Y-81.338
X75.94Y-83.878
X75.94Y-86.418
T4
X45.24Y-49.71
X45.24Y-52.25
X45.24Y-54.79
X45.24Y-57.33
X45.24Y-59.87
X45.24Y-62.41
X45.24Y-64.95
X45.24Y-67.49
X87.56Y-85.61
X90.1Y-85.61
X92.49Y-66.38
X92.64Y-85.61
X95.18Y-85.61
X102.65Y-66.38
X108.46Y-78.5
X108.46Y-81.04
X108.72Y-41.24
X108.72Y-43.78
X108.72Y-46.32
X108.72Y-48.86
X108.76Y-65.65
X108.76Y-68.19
X108.77Y-53.34
X108.77Y-55.88
X108.77Y-58.42
X108.77Y-60.96
M30
