%TF.GenerationSoftware,KiCad,Pcbnew,9.0.5*%
%TF.CreationDate,2025-11-06T15:20:43-08:00*%
%TF.ProjectId,ME507-EMBER,4d453530-372d-4454-9d42-45522e6b6963,rev?*%
%TF.SameCoordinates,Original*%
%TF.FileFunction,Soldermask,Top*%
%TF.FilePolarity,Negative*%
%FSLAX46Y46*%
G04 Gerber Fmt 4.6, Leading zero omitted, Abs format (unit mm)*
G04 Created by KiCad (PCBNEW 9.0.5) date 2025-11-06 15:20:43*
%MOMM*%
%LPD*%
G01*
G04 APERTURE LIST*
G04 Aperture macros list*
%AMRoundRect*
0 Rectangle with rounded corners*
0 $1 Rounding radius*
0 $2 $3 $4 $5 $6 $7 $8 $9 X,Y pos of 4 corners*
0 Add a 4 corners polygon primitive as box body*
4,1,4,$2,$3,$4,$5,$6,$7,$8,$9,$2,$3,0*
0 Add four circle primitives for the rounded corners*
1,1,$1+$1,$2,$3*
1,1,$1+$1,$4,$5*
1,1,$1+$1,$6,$7*
1,1,$1+$1,$8,$9*
0 Add four rect primitives between the rounded corners*
20,1,$1+$1,$2,$3,$4,$5,0*
20,1,$1+$1,$4,$5,$6,$7,0*
20,1,$1+$1,$6,$7,$8,$9,0*
20,1,$1+$1,$8,$9,$2,$3,0*%
G04 Aperture macros list end*
%ADD10RoundRect,0.250000X-0.625000X0.400000X-0.625000X-0.400000X0.625000X-0.400000X0.625000X0.400000X0*%
%ADD11RoundRect,0.250000X0.625000X-0.400000X0.625000X0.400000X-0.625000X0.400000X-0.625000X-0.400000X0*%
%ADD12RoundRect,0.250000X0.650000X-0.412500X0.650000X0.412500X-0.650000X0.412500X-0.650000X-0.412500X0*%
%ADD13RoundRect,0.249999X0.850001X-0.850001X0.850001X0.850001X-0.850001X0.850001X-0.850001X-0.850001X0*%
%ADD14C,2.200000*%
%ADD15C,2.700000*%
%ADD16C,1.524000*%
%ADD17R,3.100000X2.400000*%
%ADD18RoundRect,0.070000X-0.250000X1.100000X-0.250000X-1.100000X0.250000X-1.100000X0.250000X1.100000X0*%
%ADD19C,0.770000*%
%ADD20RoundRect,0.250000X-0.650000X0.412500X-0.650000X-0.412500X0.650000X-0.412500X0.650000X0.412500X0*%
%ADD21RoundRect,0.249999X-0.850001X-0.850001X0.850001X-0.850001X0.850001X0.850001X-0.850001X0.850001X0*%
%ADD22RoundRect,0.250000X0.400000X0.625000X-0.400000X0.625000X-0.400000X-0.625000X0.400000X-0.625000X0*%
%ADD23C,1.100000*%
%ADD24RoundRect,0.250000X-0.850000X-0.350000X0.850000X-0.350000X0.850000X0.350000X-0.850000X0.350000X0*%
%ADD25RoundRect,0.249997X-2.950003X-2.650003X2.950003X-2.650003X2.950003X2.650003X-2.950003X2.650003X0*%
%ADD26RoundRect,0.250000X-0.400000X-0.625000X0.400000X-0.625000X0.400000X0.625000X-0.400000X0.625000X0*%
%ADD27RoundRect,0.249999X0.850001X0.850001X-0.850001X0.850001X-0.850001X-0.850001X0.850001X-0.850001X0*%
%ADD28RoundRect,0.249999X-0.850001X0.850001X-0.850001X-0.850001X0.850001X-0.850001X0.850001X0.850001X0*%
G04 APERTURE END LIST*
D10*
%TO.C,R3*%
X45200000Y-70980000D03*
X45200000Y-74080000D03*
%TD*%
D11*
%TO.C,R2*%
X45000000Y-44550000D03*
X45000000Y-41450000D03*
%TD*%
D12*
%TO.C,C1*%
X90360000Y-77885000D03*
X90360000Y-74760000D03*
%TD*%
D10*
%TO.C,R8*%
X79700000Y-69380000D03*
X79700000Y-72480000D03*
%TD*%
D13*
%TO.C,J2*%
X108720000Y-48860000D03*
D14*
X108720000Y-46320000D03*
X108720000Y-43780000D03*
X108720000Y-41240000D03*
%TD*%
D12*
%TO.C,C3*%
X79730000Y-77992500D03*
X79730000Y-74867500D03*
%TD*%
D10*
%TO.C,R4*%
X48840000Y-70980000D03*
X48840000Y-74080000D03*
%TD*%
D15*
%TO.C,H3*%
X41000000Y-87000000D03*
%TD*%
D10*
%TO.C,R9*%
X90530000Y-68982500D03*
X90530000Y-72082500D03*
%TD*%
D16*
%TO.C,ESP32*%
X53080000Y-40698283D03*
X53080000Y-43238283D03*
X53080000Y-45778283D03*
X53080000Y-48318283D03*
X53080000Y-50858283D03*
X53080000Y-53398283D03*
X53080000Y-55938283D03*
X53080000Y-58478283D03*
X53080000Y-61018283D03*
X53080000Y-63558283D03*
X53080000Y-66098283D03*
X53080000Y-68638283D03*
X53080000Y-71178283D03*
X53080000Y-73718283D03*
X53080000Y-76258283D03*
X53080000Y-78798283D03*
X53080000Y-81338283D03*
X53080000Y-83878283D03*
X53080000Y-86418283D03*
X75940000Y-86418283D03*
X75940000Y-83878283D03*
X75940000Y-81338283D03*
X75940000Y-78798283D03*
X75940000Y-76258283D03*
X75940000Y-73718283D03*
X75940000Y-71178283D03*
X75940000Y-68638283D03*
X75940000Y-66098283D03*
X75940000Y-63558283D03*
X75940000Y-61018283D03*
X75940000Y-58478283D03*
X75940000Y-55938283D03*
X75940000Y-53398283D03*
X75940000Y-50858283D03*
X75940000Y-48318283D03*
X75940000Y-45778283D03*
X75940000Y-43238283D03*
X75940000Y-40698283D03*
%TD*%
D15*
%TO.C,H2*%
X113000000Y-31000000D03*
%TD*%
D17*
%TO.C,U2*%
X95715000Y-74545000D03*
D18*
X97620000Y-71670000D03*
X96350000Y-71670000D03*
X95080000Y-71670000D03*
X93810000Y-71670000D03*
X93810000Y-77420000D03*
X95080000Y-77420000D03*
X96350000Y-77420000D03*
X97620000Y-77420000D03*
D19*
X97015000Y-73895000D03*
X95715000Y-73895000D03*
X94415000Y-73895000D03*
X97015000Y-75195000D03*
X95715000Y-75195000D03*
X94415000Y-75195000D03*
%TD*%
D20*
%TO.C,C4*%
X101850000Y-81057500D03*
X101850000Y-84182500D03*
%TD*%
D21*
%TO.C,J4*%
X87560000Y-85610000D03*
D14*
X90100000Y-85610000D03*
X92640000Y-85610000D03*
X95180000Y-85610000D03*
%TD*%
D22*
%TO.C,R6*%
X101310000Y-48560000D03*
X98210000Y-48560000D03*
%TD*%
D23*
%TO.C,J1*%
X111300000Y-68190000D03*
X111300000Y-65650000D03*
D13*
X108760000Y-68190000D03*
D14*
X108760000Y-65650000D03*
%TD*%
D24*
%TO.C,Q1*%
X88665000Y-54115000D03*
D25*
X94965000Y-56395000D03*
D24*
X88665000Y-58675000D03*
%TD*%
D15*
%TO.C,H4*%
X113000000Y-87000000D03*
%TD*%
D26*
%TO.C,R7*%
X82400000Y-54000000D03*
X85500000Y-54000000D03*
%TD*%
D11*
%TO.C,R1*%
X49000000Y-44550000D03*
X49000000Y-41450000D03*
%TD*%
D27*
%TO.C,D1*%
X102650000Y-66380000D03*
D14*
X92490000Y-66380000D03*
%TD*%
D15*
%TO.C,H1*%
X41000000Y-31000000D03*
%TD*%
D23*
%TO.C,J3*%
X111000000Y-81040000D03*
X111000000Y-78500000D03*
D13*
X108460000Y-81040000D03*
D14*
X108460000Y-78500000D03*
%TD*%
D26*
%TO.C,R5*%
X92190000Y-48570000D03*
X95290000Y-48570000D03*
%TD*%
D17*
%TO.C,U1*%
X84575000Y-74495000D03*
D18*
X86480000Y-71620000D03*
X85210000Y-71620000D03*
X83940000Y-71620000D03*
X82670000Y-71620000D03*
X82670000Y-77370000D03*
X83940000Y-77370000D03*
X85210000Y-77370000D03*
X86480000Y-77370000D03*
D19*
X85875000Y-73845000D03*
X84575000Y-73845000D03*
X83275000Y-73845000D03*
X85875000Y-75145000D03*
X84575000Y-75145000D03*
X83275000Y-75145000D03*
%TD*%
D13*
%TO.C,J6*%
X108770000Y-60960000D03*
D14*
X108770000Y-58420000D03*
X108770000Y-55880000D03*
X108770000Y-53340000D03*
%TD*%
D28*
%TO.C,J5*%
X45240000Y-49710000D03*
D14*
X45240000Y-52250000D03*
X45240000Y-54790000D03*
X45240000Y-57330000D03*
X45240000Y-59870000D03*
X45240000Y-62410000D03*
X45240000Y-64950000D03*
X45240000Y-67490000D03*
%TD*%
M02*
