%TF.GenerationSoftware,KiCad,Pcbnew,9.0.5*%
%TF.CreationDate,2025-11-06T15:20:43-08:00*%
%TF.ProjectId,ME507-EMBER,4d453530-372d-4454-9d42-45522e6b6963,rev?*%
%TF.SameCoordinates,Original*%
%TF.FileFunction,Paste,Top*%
%TF.FilePolarity,Positive*%
%FSLAX46Y46*%
G04 Gerber Fmt 4.6, Leading zero omitted, Abs format (unit mm)*
G04 Created by KiCad (PCBNEW 9.0.5) date 2025-11-06 15:20:43*
%MOMM*%
%LPD*%
G01*
G04 APERTURE LIST*
G04 Aperture macros list*
%AMRoundRect*
0 Rectangle with rounded corners*
0 $1 Rounding radius*
0 $2 $3 $4 $5 $6 $7 $8 $9 X,Y pos of 4 corners*
0 Add a 4 corners polygon primitive as box body*
4,1,4,$2,$3,$4,$5,$6,$7,$8,$9,$2,$3,0*
0 Add four circle primitives for the rounded corners*
1,1,$1+$1,$2,$3*
1,1,$1+$1,$4,$5*
1,1,$1+$1,$6,$7*
1,1,$1+$1,$8,$9*
0 Add four rect primitives between the rounded corners*
20,1,$1+$1,$2,$3,$4,$5,0*
20,1,$1+$1,$4,$5,$6,$7,0*
20,1,$1+$1,$6,$7,$8,$9,0*
20,1,$1+$1,$8,$9,$2,$3,0*%
G04 Aperture macros list end*
%ADD10RoundRect,0.250000X-0.625000X0.400000X-0.625000X-0.400000X0.625000X-0.400000X0.625000X0.400000X0*%
%ADD11RoundRect,0.250000X0.625000X-0.400000X0.625000X0.400000X-0.625000X0.400000X-0.625000X-0.400000X0*%
%ADD12RoundRect,0.250000X0.650000X-0.412500X0.650000X0.412500X-0.650000X0.412500X-0.650000X-0.412500X0*%
%ADD13R,3.100000X2.400000*%
%ADD14R,0.500000X2.200000*%
%ADD15RoundRect,0.250000X-0.650000X0.412500X-0.650000X-0.412500X0.650000X-0.412500X0.650000X0.412500X0*%
%ADD16RoundRect,0.250000X0.400000X0.625000X-0.400000X0.625000X-0.400000X-0.625000X0.400000X-0.625000X0*%
%ADD17RoundRect,0.250000X-1.275000X-1.125000X1.275000X-1.125000X1.275000X1.125000X-1.275000X1.125000X0*%
%ADD18RoundRect,0.250000X-0.850000X-0.350000X0.850000X-0.350000X0.850000X0.350000X-0.850000X0.350000X0*%
%ADD19RoundRect,0.250000X-0.400000X-0.625000X0.400000X-0.625000X0.400000X0.625000X-0.400000X0.625000X0*%
G04 APERTURE END LIST*
D10*
%TO.C,R3*%
X45200000Y-70980000D03*
X45200000Y-74080000D03*
%TD*%
D11*
%TO.C,R2*%
X45000000Y-44550000D03*
X45000000Y-41450000D03*
%TD*%
D12*
%TO.C,C1*%
X90360000Y-77885000D03*
X90360000Y-74760000D03*
%TD*%
D10*
%TO.C,R8*%
X79700000Y-69380000D03*
X79700000Y-72480000D03*
%TD*%
D12*
%TO.C,C3*%
X79730000Y-77992500D03*
X79730000Y-74867500D03*
%TD*%
D10*
%TO.C,R4*%
X48840000Y-70980000D03*
X48840000Y-74080000D03*
%TD*%
%TO.C,R9*%
X90530000Y-68982500D03*
X90530000Y-72082500D03*
%TD*%
D13*
%TO.C,U2*%
X95715000Y-74545000D03*
D14*
X97620000Y-71670000D03*
X96350000Y-71670000D03*
X95080000Y-71670000D03*
X93810000Y-71670000D03*
X93810000Y-77420000D03*
X95080000Y-77420000D03*
X96350000Y-77420000D03*
X97620000Y-77420000D03*
%TD*%
D15*
%TO.C,C4*%
X101850000Y-81057500D03*
X101850000Y-84182500D03*
%TD*%
D16*
%TO.C,R6*%
X101310000Y-48560000D03*
X98210000Y-48560000D03*
%TD*%
D17*
%TO.C,Q1*%
X93290000Y-54870000D03*
X93290000Y-57920000D03*
X96640000Y-54870000D03*
X96640000Y-57920000D03*
D18*
X88665000Y-54115000D03*
X88665000Y-58675000D03*
%TD*%
D19*
%TO.C,R7*%
X82400000Y-54000000D03*
X85500000Y-54000000D03*
%TD*%
D11*
%TO.C,R1*%
X49000000Y-44550000D03*
X49000000Y-41450000D03*
%TD*%
D19*
%TO.C,R5*%
X92190000Y-48570000D03*
X95290000Y-48570000D03*
%TD*%
D13*
%TO.C,U1*%
X84575000Y-74495000D03*
D14*
X86480000Y-71620000D03*
X85210000Y-71620000D03*
X83940000Y-71620000D03*
X82670000Y-71620000D03*
X82670000Y-77370000D03*
X83940000Y-77370000D03*
X85210000Y-77370000D03*
X86480000Y-77370000D03*
%TD*%
M02*
